<svg width="440" height="939" viewBox="0 0 440 939" fill="none" xmlns="http://www.w3.org/2000/svg">
<g clip-path="url(#clip0_85_17)">
<rect width="440" height="939" fill="white"/>
<g filter="url(#filter0_d_85_17)">
<path d="M-37.9999 -29C-37.9999 -40.0457 -29.0456 -49 -17.9999 -49H452.062C463.107 -49 472.062 -40.0457 472.062 -29V918.413C472.062 929.459 463.107 938.413 452.062 938.413H-18C-29.0457 938.413 -38 929.459 -38 918.413L-37.9999 -29Z" fill="url(#paint0_linear_85_17)"/>
<path d="M-37.9999 -29C-37.9999 -40.0457 -29.0456 -49 -17.9999 -49H452.062C463.107 -49 472.062 -40.0457 472.062 -29V918.413C472.062 929.459 463.107 938.413 452.062 938.413H-18C-29.0457 938.413 -38 929.459 -38 918.413L-37.9999 -29Z" fill="url(#paint1_linear_85_17)"/>
<path d="M-17.9999 -49.5C-29.3218 -49.5 -38.4999 -40.3219 -38.4999 -29L-38.5 918.413C-38.5 929.735 -29.3218 938.913 -18 938.913H452.062C463.383 938.913 472.562 929.735 472.562 918.413V-29C472.562 -40.3218 463.383 -49.5 452.062 -49.5H-17.9999Z" stroke="url(#paint2_linear_85_17)"/>
</g>
<g filter="url(#filter1_f_85_17)">
<ellipse cx="87.0993" cy="877.97" rx="103.623" ry="98.0302" fill="#D9D9D9"/>
</g>
<g filter="url(#filter2_f_85_17)">
<ellipse cx="400.653" cy="488.896" rx="172.347" ry="163.045" fill="#E87121"/>
</g>
<rect x="-10.0808" y="-8.36572" width="459.592" height="946.779" fill="white" fill-opacity="0.05"/>
<g filter="url(#filter3_f_85_17)">
<circle cx="78.5" cy="800.5" r="160.5" fill="#E87121" fill-opacity="0.7"/>
</g>
</g>
<defs>
<filter id="filter0_d_85_17" x="-61" y="-75" width="552.062" height="1029.41" filterUnits="userSpaceOnUse" color-interpolation-filters="sRGB">
<feFlood flood-opacity="0" result="BackgroundImageFix"/>
<feColorMatrix in="SourceAlpha" type="matrix" values="0 0 0 0 0 0 0 0 0 0 0 0 0 0 0 0 0 0 127 0" result="hardAlpha"/>
<feOffset dx="-2" dy="-5"/>
<feGaussianBlur stdDeviation="10"/>
<feColorMatrix type="matrix" values="0 0 0 0 0.282353 0 0 0 0 0.32549 0 0 0 0 0.360784 0 0 0 0.35 0"/>
<feBlend mode="normal" in2="BackgroundImageFix" result="effect1_dropShadow_85_17"/>
<feBlend mode="normal" in="SourceGraphic" in2="effect1_dropShadow_85_17" result="shape"/>
</filter>
<filter id="filter1_f_85_17" x="-316.524" y="479.94" width="807.246" height="796.06" filterUnits="userSpaceOnUse" color-interpolation-filters="sRGB">
<feFlood flood-opacity="0" result="BackgroundImageFix"/>
<feBlend mode="normal" in="SourceGraphic" in2="BackgroundImageFix" result="shape"/>
<feGaussianBlur stdDeviation="150" result="effect1_foregroundBlur_85_17"/>
</filter>
<filter id="filter2_f_85_17" x="28.3058" y="125.851" width="744.694" height="726.09" filterUnits="userSpaceOnUse" color-interpolation-filters="sRGB">
<feFlood flood-opacity="0" result="BackgroundImageFix"/>
<feBlend mode="normal" in="SourceGraphic" in2="BackgroundImageFix" result="shape"/>
<feGaussianBlur stdDeviation="100" result="effect1_foregroundBlur_85_17"/>
</filter>
<filter id="filter3_f_85_17" x="-282" y="440" width="721" height="721" filterUnits="userSpaceOnUse" color-interpolation-filters="sRGB">
<feFlood flood-opacity="0" result="BackgroundImageFix"/>
<feBlend mode="normal" in="SourceGraphic" in2="BackgroundImageFix" result="shape"/>
<feGaussianBlur stdDeviation="100" result="effect1_foregroundBlur_85_17"/>
</filter>
<linearGradient id="paint0_linear_85_17" x1="217.031" y1="-599.802" x2="938.54" y2="347.776" gradientUnits="userSpaceOnUse">
<stop stop-color="#363E46"/>
<stop offset="1" stop-color="#2C343C"/>
</linearGradient>
<linearGradient id="paint1_linear_85_17" x1="595.55" y1="-320.234" x2="51.5566" y2="954.449" gradientUnits="userSpaceOnUse">
<stop stop-color="white" stop-opacity="0.17"/>
<stop offset="1" stop-color="white" stop-opacity="0"/>
</linearGradient>
<linearGradient id="paint2_linear_85_17" x1="-58.5442" y1="-49" x2="582.724" y2="519.532" gradientUnits="userSpaceOnUse">
<stop stop-color="#5D666D"/>
<stop offset="1" stop-color="#23282D" stop-opacity="0"/>
</linearGradient>
<clipPath id="clip0_85_17">
<rect width="440" height="939" fill="white"/>
</clipPath>
</defs>
</svg>
