<svg width="428" height="691" viewBox="0 0 428 691" fill="none" xmlns="http://www.w3.org/2000/svg">
<g filter="url(#filter0_d_4_80)">
<path d="M5.00007 46C5.00007 34.9543 13.9544 26 25.0001 26H398C409.046 26 418 34.9543 418 46V655C418 666.046 409.046 675 398 675H25C13.9543 675 5 666.046 5 655L5.00007 46Z" fill="url(#paint0_linear_4_80)" fill-opacity="0.05"/>
<path d="M25.0001 25.5C13.6782 25.5 4.50007 34.6781 4.50007 46L4.5 655C4.5 666.322 13.6782 675.5 25 675.5H398C409.322 675.5 418.5 666.322 418.5 655V46C418.5 34.6782 409.322 25.5 398 25.5H25.0001Z" stroke="url(#paint1_linear_4_80)"/>
</g>
<defs>
<filter id="filter0_d_4_80" x="-18" y="0" width="455" height="691" filterUnits="userSpaceOnUse" color-interpolation-filters="sRGB">
<feFlood flood-opacity="0" result="BackgroundImageFix"/>
<feColorMatrix in="SourceAlpha" type="matrix" values="0 0 0 0 0 0 0 0 0 0 0 0 0 0 0 0 0 0 127 0" result="hardAlpha"/>
<feOffset dx="-2" dy="-5"/>
<feGaussianBlur stdDeviation="10"/>
<feColorMatrix type="matrix" values="0 0 0 0 0.282353 0 0 0 0 0.32549 0 0 0 0 0.360784 0 0 0 0.35 0"/>
<feBlend mode="normal" in2="BackgroundImageFix" result="effect1_dropShadow_4_80"/>
<feBlend mode="normal" in="SourceGraphic" in2="effect1_dropShadow_4_80" result="shape"/>
</filter>
<linearGradient id="paint0_linear_4_80" x1="-45.5" y1="-325.5" x2="772.415" y2="279.462" gradientUnits="userSpaceOnUse">
<stop stop-color="#403C3A"/>
<stop offset="0.998617" stop-color="white"/>
</linearGradient>
<linearGradient id="paint1_linear_4_80" x1="-11.6347" y1="26" x2="411.266" y2="487.887" gradientUnits="userSpaceOnUse">
<stop stop-color="#5D666D"/>
<stop offset="1" stop-color="#23282D" stop-opacity="0"/>
</linearGradient>
</defs>
</svg>
